<svg xmlns="http://www.w3.org/2000/svg" width="176.684" height="46.146" viewBox="0 0 176.684 46.146"><defs><style>.a{fill:#a9671e;}</style></defs><path class="a" d="M102.069,21l-1.209-1.19a13.327,13.327,0,0,0-1.828-1.588c-.47.017-.738.047-1.219.047-.41,0-.639-.03-.926-.047v3.03c0,1.072.433,1.342,1.448,1.342h.41v.346H93.663v-.346h.323c1.037,0,1.418-.287,1.418-1.483V13.567c0-1.114-.305-1.43-1.344-1.43h-.4V11.79c.44,0,1.525-.076,2.256-.105s1.1-.041,2.263-.041c3.312,0,4.812,1.348,4.812,3.182a3.061,3.061,0,0,1-2.391,2.891,21.7,21.7,0,0,1,2.046,1.87l1.4,1.412a5.428,5.428,0,0,0,3.535,1.811v.317c-.277.013-.536.019-.779.019C104.3,23.146,103.5,22.452,102.069,21Zm-5.182-9v5.878a7.009,7.009,0,0,0,1.107.036c2.011,0,3.312-.837,3.312-2.994,0-1.66-.743-2.948-3.523-2.948C97.449,11.973,97.215,11.973,96.887,12Zm96.866,11.144V22.8h.463c1.021,0,1.408-.112,1.408-.609a2.12,2.12,0,0,0-.193-.733l-1.214-3.265h-3.7L189.474,21a5.4,5.4,0,0,0-.357,1.132c0,.5.464.668,1.442.668h.305v.346h-4.157V22.8c1.174-.023,1.355-.223,1.941-1.777l3.259-8.9-.17-.4h1.57l3.745,9.952a1.4,1.4,0,0,0,1.632,1.126v.346Zm-2.93-5.738h3.107l-1.577-4.172Zm-27.688,5.738V22.8h.305c.957,0,1.408-.27,1.408-1.307V13.785c0-1.174-.305-1.443-1.36-1.443h-.353V12c.658-.029,1.525-.076,2.509-.105,1-.042,2.088-.042,3.024-.042,4.708,0,6.806,2.393,6.806,5.341,0,2.7-2.1,5.955-6.635,5.955Zm3.189-10.9V21.81c0,.743.065.99,1.46.99,2.409,0,3.424-.334,4.525-1.447a5.516,5.516,0,0,0,1.484-3.869,5.367,5.367,0,0,0-1.43-3.857c-.822-.82-2.093-1.447-4.6-1.447A13.222,13.222,0,0,0,166.324,12.249Zm-24.21,10.9V22.8h.492c1.442,0,1.675-.387,1.675-1.454V13.774c0-1-.215-1.431-1.417-1.431h-.4V12h8.6l.147,2.479h-.317c-.246-1.517-.686-1.829-1.336-1.829h-3.775v4.4h3.212c.639,0,.949-.305,1.038-1.343h.339v3.4h-.339c-.146-1.271-.493-1.418-1.225-1.418h-3.025v3.828c0,.826.305.973.962.973H149.5c1.273,0,1.647-.468,2.074-2.022h.329l-.283,2.678Zm-17.68,0-3.863-9.7c-.446-1.131-.675-1.389-1.753-1.389V11.71h4.906v.347c-1.641.034-2.021.41-1.693,1.225l3.217,8.023,2.837-7.385a3.357,3.357,0,0,0,.311-1.113c0-.545-.463-.75-1.676-.75V11.71h4.162v.347c-.944,0-1.413.427-1.854,1.535l-3.668,9.553ZM70.339,18.62V13.387c0-1.138-.341-1.319-1.561-1.33V11.71h4.613v.347h-.152c-.991,0-1.431.257-1.431,1.3v4.975c0,2.409,1.431,3.869,4.092,3.869,2.028,0,4.085-.832,4.085-3.881V14.149c0-1.73-.269-2.029-1.759-2.092V11.71h4.2v.347c-1.194.011-1.623.5-1.623,1.623v4.859c0,2.2-1.418,4.607-5.3,4.607C72.09,23.145,70.339,21.176,70.339,18.62ZM49.063,23.145V22.8H49.4c1.126,0,1.443-.4,1.443-1.284V18.985L47.656,14c-.885-1.389-1.294-1.624-2.46-1.66V12h4.77v.346c-1.4,0-1.49.347-.955,1.173l2.866,4.407,2.532-4.3c.563-.979.235-1.284-.914-1.284V12h4.051v.346A2.469,2.469,0,0,0,55.3,13.75l-2.971,5.035v2.679c0,.954.339,1.337,1.43,1.337h.234v.345Zm-20.012,0V22.8h.469c1.009,0,1.383-.112,1.383-.609a1.9,1.9,0,0,0-.182-.733l-1.2-3.265H25.8L24.773,21a4.8,4.8,0,0,0-.37,1.132c0,.5.463.668,1.461.668h.292v.346H22V22.8c1.173-.023,1.377-.223,1.94-1.777l3.265-8.9-.165-.4h1.565l3.739,9.952A1.393,1.393,0,0,0,33.962,22.8v.346Zm-2.937-5.738H29.2l-1.56-4.172ZM180.061,2.01V.984h4.407l1.149-2.175-3.259-5.7H171.62L169.312-2.6,171.3.984h2.685V2.01H161.9V.984C164.323.537,166.38.151,168.6-3.95L179.034-23h1.73L193.1-1.256c1.283,2.239,3.458,2.239,5.58,2.239V2.01ZM176.6-16.171,172.254-7.9h9.541l-4.232-8.27a.466.466,0,0,0-.445-.375C176.867-16.547,176.738-16.348,176.6-16.171ZM137.079,2.01V.984h3.464l1.84-2.368V-20c0-.193-.176-.251-.37-.251-.264,0-.45.059-.515.251L131.259,1.364h-.511L119.5-19.8a.624.624,0,0,0-.456-.328.44.44,0,0,0-.445.452v16.81l3.523,3.85h2.431V2.01H111.241V.984h2.879l3.077-3.85v-16.5c0-.763-.509-2.17-1.677-2.17h-4.279V-22.56h14.2l8.376,15.8,7.549-15.8h13.75v1.025H151.8l-2.625,2.368v17.6L151.415.984h3.7V2.01Zm-51.24,0V.984h4.408L91.4-1.192l-3.253-5.7H77.376L75.084-2.6,77.071.984h2.7V2.01H67.67V.984C70.1.537,72.141.151,74.375-3.95L84.819-23h1.719L98.876-1.256C100.159.984,102.322.984,104.467.984V2.01ZM82.388-16.171,78.015-7.9h9.56l-4.243-8.27a.457.457,0,0,0-.441-.375C82.628-16.547,82.5-16.348,82.388-16.171ZM43.74,2.01V.984h3.51l1.039-2.239-7.544-9.536L34.976-7.2v6.077L37.1.984H39.45V2.01H22V.984h3.775l2.11-2.309V-19.249l-2.257-2.286H22V-22.56H39.45v1.025H37.1l-2.123,1.782V-8.681l14.338-9.143L45.72-21.535H43.557V-22.56H60.187v1.025H57.245l-11,7.1L58.393.984h2.5V2.01Z" transform="translate(-22 23)"/></svg>